<svg xmlns="http://www.w3.org/2000/svg" viewBox="0 0 867.44 268.1"><path d="M0 123.88V2.52h24.16v43.37H35.6V2.52h24.16v121.36H35.6v-55.1H24.16v55.1zM69.23 92.94V51.4q0-14.69 8.27-23.38t22.67-8.69q14.41 0 22.68 8.69t8.26 23.38v41.54q0 32.07-30.94 32.07T69.23 92.94zm35.32 10.88A10.34 10.34 0 0 0 106 98V47.45q0-9-5.79-9t-5.79 9V98a10.33 10.33 0 0 0 1.41 5.79 5.59 5.59 0 0 0 8.76 0zM140.29 20.46H165V31.9a17.38 17.38 0 0 1 6.43-9.4 18.91 18.91 0 0 1 11.37-3.32v20.64a50.47 50.47 0 0 0-11.5 1.48q-6.3 1.48-6.3 3.46v79.12h-24.71zM191.22 117q-4.45-8-4.45-22.82 0-12.15 3.18-18.65a20.79 20.79 0 0 1 8.83-9.53q5.65-3 17.24-6.71l6.78-2.26V46.46a10.43 10.43 0 0 0-1.62-6.29 4.75 4.75 0 0 0-3.89-2.17 4.36 4.36 0 0 0-3.46 1.84 7.64 7.64 0 0 0-1.48 4.94V51h-24v-3.41q0-15.26 7.13-21.76t23.24-6.5q12.85 0 20.91 6.71t8.05 19v78.83h-24.6v-12.28a20.24 20.24 0 0 1-5.86 9.89 14 14 0 0 1-9.54 3.53q-12.01-.01-16.46-8.01zm30.23-13.56a12.41 12.41 0 0 0 1.2-5.72v-28.8a18.83 18.83 0 0 0-8.12 5.37q-2.62 3.25-2.61 9v13.32q0 9.19 5.51 9.18a4.18 4.18 0 0 0 4.02-2.33zM296.89 120.7a21.09 21.09 0 0 1-6.08-11.44A92.6 92.6 0 0 1 289.33 91l.28-46.62q0-11 5.58-18t15.75-7q10 0 15 6.64V1.81h24.72v122.07h-24.73v-11a20.38 20.38 0 0 1-5.72 9.11q-3.6 3-9.68 3-9.05.01-13.64-4.29zM324.8 102a33.43 33.43 0 0 0 1.13-9.68V49.14a20.2 20.2 0 0 0-1.27-7.63 4.55 4.55 0 0 0-4.52-3.11q-3.68 0-4.87 2.9a20.93 20.93 0 0 0-1.2 7.84v43.51q0 13 5.93 13a4.64 4.64 0 0 0 4.8-3.65zM359.69 92.94V51.4q0-14.69 8.27-23.38t22.67-8.69q14.41 0 22.68 8.69t8.26 23.38v41.54q0 32.07-30.94 32.07t-30.94-32.07zM395 103.82a10.34 10.34 0 0 0 1.42-5.82V47.45q0-9-5.79-9t-5.79 9V98a10.33 10.33 0 0 0 1.41 5.79 5.59 5.59 0 0 0 8.76 0zM0 143.8h37.3q8.9 0 13.78 4a20 20 0 0 1 6.57 11.3 84.1 84.1 0 0 1 1.7 18.58q0 10.32-2.68 16.11a15.07 15.07 0 0 1-9.32 8.05 11.24 11.24 0 0 1 8 5.51q2.47 4.38 2.47 11.87l-.28 45.92H33.77v-47.45q0-5.09-2-6.5t-7.21-1.41v55.38H0zm30.52 44.93q5.09 0 5.09-11a45 45 0 0 0-.42-7.21 5.36 5.36 0 0 0-1.55-3.32 5 5 0 0 0-3.25-.92h-5.67v22.46zM73 257.53q-6.92-8.76-6.92-26.14v-41.54q0-14.27 8.19-21.76t22.89-7.49q29.81 0 29.81 29.25v7.49q0 11.3-.28 18.37H90.84v20.06a24.88 24.88 0 0 0 1.16 8.41q1.13 3 4.8 3a4.59 4.59 0 0 0 4-1.7 7.93 7.93 0 0 0 1.41-3.89q.21-2.19.21-6.43v-10H127v5.93q0 18.08-7 26.63t-24.09 8.55Q80 266.29 73 257.53zm29.39-54.11v-13.28q0-11.16-5.51-11.16-6.22 0-6.22 11.16v13.28zM135.91 161.74h24.16v12q1.69-6.64 5.79-9.89t11.58-3.25a19.6 19.6 0 0 1 10.56 2.76 15 15 0 0 1 6.29 7.56 22.52 22.52 0 0 1 6.92-7.84q3.81-2.47 10.6-2.47 12.15 0 16.88 7.42t4.73 21.54l-.28 75.58h-24.9v-76q0-10-5.09-10a5.25 5.25 0 0 0-5.09 3.46 20.06 20.06 0 0 0-1.55 8.26v74.31h-24.72v-76a22.38 22.38 0 0 0-.92-7.06 3.73 3.73 0 0 0-3.87-2.72 5.45 5.45 0 0 0-5.37 3.74 23.34 23.34 0 0 0-1.55 9v73h-24.17zM249.07 257.53q-6.92-8.76-6.92-26.14v-41.54q0-14.27 8.19-21.76t22.89-7.49q29.81 0 29.81 29.25v7.49q0 11.3-.28 18.37h-35.89v20.06a24.88 24.88 0 0 0 1.13 8.41q1.13 3 4.8 3a4.59 4.59 0 0 0 4-1.7 7.93 7.93 0 0 0 1.41-3.89q.21-2.19.21-6.43v-10H303v5.93q0 18.08-7 26.63t-24 8.57q-16 0-22.93-8.76zm7.63-100.59v-15.4l32.78-15.12v24zm21.76 46.48v-13.28q0-11.16-5.51-11.16-6.22 0-6.22 11.16v13.28zM318.65 262a21.09 21.09 0 0 1-6.08-11.44 92.6 92.6 0 0 1-1.48-18.3l.28-46.62q0-11 5.58-18t15.75-7q10 0 15 6.64v-24.19h24.72v122.07h-24.74v-11a20.38 20.38 0 0 1-5.72 9.11q-3.6 3-9.68 3-9.04.02-13.63-4.27zm27.9-18.65a33.44 33.44 0 0 0 1.13-9.68v-43.25a20.19 20.19 0 0 0-1.27-7.63 4.55 4.55 0 0 0-4.52-3.11q-3.68 0-4.87 2.9a20.92 20.92 0 0 0-1.2 7.84v43.51q0 13 5.93 13a4.64 4.64 0 0 0 4.8-3.6zM382.15 154.82v-17.24h24.72v17.24zm0 110.34V161.74h24.72v103.42zM415.78 234.22v-41.54q0-14.69 8.27-23.38t22.67-8.69q14.41 0 22.68 8.69t8.26 23.38v41.54q0 32.07-30.94 32.07t-30.94-32.07zm35.32 10.88a10.34 10.34 0 0 0 1.41-5.79v-50.59q0-9-5.79-9t-5.79 9v50.58a10.33 10.33 0 0 0 1.41 5.79 5.59 5.59 0 0 0 8.76 0z" fill="#636e72"/><path d="M560.22 134a78.49 78.49 0 0 0 0 111 78.49 78.49 0 0 0 111 0l55.5-55.5-111-111z" fill="#00cec9"/><path d="M782.22 134a78.49 78.49 0 0 0 0-111 78.49 78.49 0 0 0-111 0l-55.5 55.5 111 111z" fill="#ff9d9c"/><path d="M726.73 0v7.85a70.64 70.64 0 0 1 49.94 120.59l-111 111a70.64 70.64 0 0 1-99.9-99.9l111-111a70.19 70.19 0 0 1 50-20.69V0m0 0a78.26 78.26 0 0 0-55.5 23l-111 111a78.49 78.49 0 0 0 0 111 78.49 78.49 0 0 0 111 0l111-111a78.49 78.49 0 0 0 0-111 78.23 78.23 0 0 0-55.5-23z" fill="#636e72"/><path fill="#636e72" d="M612.94 81.27l5.55-5.552L729.492 186.72l-5.55 5.55z"/><path d="M789 264.17a74.56 74.56 0 1 1 74.56-74.56A74.65 74.65 0 0 1 789 264.17z" fill="#fff"/><path d="M789 119a70.64 70.64 0 1 1-70.64 70.64A70.72 70.72 0 0 1 789 119m0-7.85a78.49 78.49 0 1 0 78.49 78.49A78.49 78.49 0 0 0 789 111.12z" fill="#636e72"/><rect x="730.09" y="185.69" width="117.73" height="7.85" rx="3.92" ry="3.92" fill="#636e72"/></svg>